<?xml version="1.0" encoding="UTF-8" standalone="no"?>
<svg
   data-v-423bf9ae=""
   viewBox="0 0 488 90"
   class="iconLeftSlogan"
   version="1.1"
   id="svg50"
   sodipodi:docname="agence-la-panthere-monochrome.svg"
   inkscape:version="1.2.2 (b0a8486, 2022-12-01)"
   xmlns:inkscape="http://www.inkscape.org/namespaces/inkscape"
   xmlns:sodipodi="http://sodipodi.sourceforge.net/DTD/sodipodi-0.dtd"
   xmlns="http://www.w3.org/2000/svg"
   xmlns:svg="http://www.w3.org/2000/svg">
  <sodipodi:namedview
     id="namedview52"
     pagecolor="#ffffff"
     bordercolor="#000000"
     borderopacity="0.25"
     inkscape:showpageshadow="2"
     inkscape:pageopacity="0.0"
     inkscape:pagecheckerboard="0"
     inkscape:deskcolor="#d1d1d1"
     showgrid="false"
     showguides="true"
     inkscape:zoom="2.4180328"
     inkscape:cx="244"
     inkscape:cy="45.077966"
     inkscape:window-width="1280"
     inkscape:window-height="456"
     inkscape:window-x="0"
     inkscape:window-y="23"
     inkscape:window-maximized="0"
     inkscape:current-layer="svg50">
    <sodipodi:guide
       position="131.51186,41.2"
       orientation="1,0"
       id="guide212"
       inkscape:locked="false" />
    <sodipodi:guide
       position="104.63051,3.5661017"
       orientation="0,-1"
       id="guide214"
       inkscape:locked="false" />
  </sodipodi:namedview>
  <!---->
  <!---->
  <!---->
  <g
     data-v-423bf9ae=""
     id="409599fb-89aa-4ddd-9c19-604f11e9ffd0"
     fill="#000000"
     transform="matrix(4.357298631868611,0,0,4.357298631868611,127.58696443664917,-10.718954323777375)">
    <path
       d="M1.54 14.59L1.54 14.59L1.54 14.59Q1.41 14.25 1.41 13.65L1.41 13.65L1.41 13.65Q1.41 13.05 1.82 10.09L1.82 10.09L1.82 10.09Q2.23 7.14 2.23 5.35L2.23 5.35L2.23 5.35Q2.23 4.93 2.17 4.20L2.17 4.20L2.17 4.20Q3.23 4.26 3.50 4.70L3.50 4.70L3.50 4.70Q3.64 4.96 3.68 5.19L3.68 5.19L3.68 5.19Q3.72 5.42 3.72 5.92L3.72 5.92L3.72 5.92Q3.72 6.41 3.27 9.65L3.27 9.65L3.27 9.65Q2.81 12.89 2.80 14.27L2.80 14.27L2.80 14.27Q2.87 14.25 3.05 14.25L3.05 14.25L3.05 14.25Q6.08 14.25 7.56 13.83L7.56 13.83L7.56 13.83Q7.46 14.64 7.01 15.09L7.01 15.09L7.01 15.09Q6.55 15.54 5.87 15.54L5.87 15.54L5.87 15.54Q5.67 15.54 4.66 15.45L4.66 15.45L4.66 15.45Q3.64 15.36 2.69 15.36L2.69 15.36L2.69 15.36Q1.74 15.36 0.78 15.54L0.78 15.54L0.78 15.54Q0.97 14.92 1.54 14.59ZM10.75 9.95L10.75 9.95L10.75 9.95Q10.35 10.65 10.13 11.39L10.13 11.39L10.13 11.39Q9.91 12.12 9.91 12.80L9.91 12.80L9.91 12.80Q9.91 13.47 10.21 13.94L10.21 13.94L10.21 13.94Q10.51 14.41 11.07 14.41L11.07 14.41L11.07 14.41Q11.86 14.41 12.54 13.55L12.54 13.55L12.54 13.55Q13.23 12.68 13.60 11.46L13.60 11.46L13.60 11.46Q13.97 10.23 13.97 9.19L13.97 9.19L13.97 9.19Q13.97 8.15 13.89 7.48L13.89 7.48L13.89 7.48Q14.22 7.45 14.31 7.45L14.31 7.45L14.31 7.45Q15.50 7.45 15.50 8.67L15.50 8.67L15.50 8.67Q15.50 8.93 15.16 10.83L15.16 10.83L15.16 10.83Q14.83 12.73 14.83 13.87L14.83 13.87L14.83 13.87Q14.83 15.01 15.26 15.89L15.26 15.89L15.26 15.89Q14.38 15.71 13.98 15.11L13.98 15.11L13.98 15.11Q13.58 14.52 13.58 13.40L13.58 13.40L13.58 13.40Q13.58 13.20 13.64 12.64L13.64 12.64L13.64 12.64Q13.26 13.97 12.31 14.78L12.31 14.78L12.31 14.78Q11.35 15.60 10.44 15.60L10.44 15.60L10.44 15.60Q9.52 15.60 8.96 14.90L8.96 14.90L8.96 14.90Q8.40 14.21 8.40 12.99L8.40 12.99L8.40 12.99Q8.40 11.76 8.86 10.59L8.86 10.59L8.86 10.59Q9.31 9.42 10.23 8.57L10.23 8.57L10.23 8.57Q11.14 7.71 12.28 7.71L12.28 7.71L12.28 7.71Q12.77 7.71 13.36 7.91L13.36 7.91L13.36 7.91Q12.53 8.12 11.84 8.68L11.84 8.68L11.84 8.68Q11.16 9.24 10.75 9.95ZM24.84 5.70L24.84 5.70L24.85 5.87L24.85 5.87Q24.85 6.40 24.45 9.35L24.45 9.35L24.45 9.35Q24.05 12.29 24.05 14.27L24.05 14.27L24.05 14.27Q24.05 15.15 24.14 15.64L24.14 15.64L24.14 15.64Q23.80 15.67 23.77 15.67L23.77 15.67L23.77 15.67Q23.14 15.67 22.83 15.38L22.83 15.38L22.83 15.38Q22.53 15.09 22.53 14.44L22.53 14.44L22.53 14.44Q22.53 13.79 23.00 10.46L23.00 10.46L23.00 10.46Q23.46 7.14 23.46 5.72L23.46 5.72L23.46 5.72Q23.46 4.30 23.27 3.86L23.27 3.86L23.27 3.86Q23.72 3.92 24.10 4.21L24.10 4.21L24.10 4.21Q24.49 4.49 24.68 4.97L24.68 4.97L24.68 4.97Q25.75 4.40 27.06 4.40L27.06 4.40L27.06 4.40Q28.36 4.40 29.11 5.20L29.11 5.20L29.11 5.20Q29.86 6.01 29.86 7.18L29.86 7.18L29.86 7.18Q29.86 8.68 28.77 9.88L28.77 9.88L28.77 9.88Q27.68 11.07 25.83 11.07L25.83 11.07L25.83 11.07Q25.41 11.07 25.06 11.02L25.06 11.02L25.02 10.57L25.02 10.57Q25.96 10.57 26.66 10.29L26.66 10.29L26.66 10.29Q27.36 10.01 27.72 9.55L27.72 9.55L27.72 9.55Q28.43 8.65 28.43 7.45L28.43 7.45L28.43 7.45Q28.43 6.58 27.88 6.00L27.88 6.00L27.88 6.00Q27.33 5.42 26.28 5.42L26.28 5.42L26.28 5.42Q25.65 5.42 24.84 5.70ZM32.96 9.95L32.96 9.95L32.96 9.95Q32.55 10.65 32.33 11.39L32.33 11.39L32.33 11.39Q32.12 12.12 32.12 12.80L32.12 12.80L32.12 12.80Q32.12 13.47 32.42 13.94L32.42 13.94L32.42 13.94Q32.72 14.41 33.28 14.41L33.28 14.41L33.28 14.41Q34.06 14.41 34.75 13.55L34.75 13.55L34.75 13.55Q35.43 12.68 35.80 11.46L35.80 11.46L35.80 11.46Q36.18 10.23 36.18 9.19L36.18 9.19L36.18 9.19Q36.18 8.15 36.09 7.48L36.09 7.48L36.09 7.48Q36.43 7.45 36.51 7.45L36.51 7.45L36.51 7.45Q37.70 7.45 37.70 8.67L37.70 8.67L37.70 8.67Q37.70 8.93 37.37 10.83L37.37 10.83L37.37 10.83Q37.03 12.73 37.03 13.87L37.03 13.87L37.03 13.87Q37.03 15.01 37.46 15.89L37.46 15.89L37.46 15.89Q36.58 15.71 36.18 15.11L36.18 15.11L36.18 15.11Q35.78 14.52 35.78 13.40L35.78 13.40L35.78 13.40Q35.78 13.20 35.84 12.64L35.84 12.64L35.84 12.64Q35.46 13.97 34.51 14.78L34.51 14.78L34.51 14.78Q33.56 15.60 32.64 15.60L32.64 15.60L32.64 15.60Q31.72 15.60 31.16 14.90L31.16 14.90L31.16 14.90Q30.60 14.21 30.60 12.99L30.60 12.99L30.60 12.99Q30.60 11.76 31.06 10.59L31.06 10.59L31.06 10.59Q31.51 9.42 32.43 8.57L32.43 8.57L32.43 8.57Q33.35 7.71 34.48 7.71L34.48 7.71L34.48 7.71Q34.97 7.71 35.56 7.91L35.56 7.91L35.56 7.91Q34.73 8.12 34.05 8.68L34.05 8.68L34.05 8.68Q33.36 9.24 32.96 9.95ZM46.35 9.34L46.35 9.34L46.35 9.34Q46.35 9.98 46.08 11.61L46.08 11.61L46.08 11.61Q45.81 13.24 45.81 13.99L45.81 13.99L45.81 13.99Q45.81 14.73 45.99 15.06L45.99 15.06L45.99 15.06Q46.17 15.39 46.61 15.62L46.61 15.62L46.61 15.62Q46.42 15.64 46.09 15.64L46.09 15.64L46.09 15.64Q45.14 15.64 44.74 15.28L44.74 15.28L44.74 15.28Q44.34 14.92 44.34 14L44.34 14L44.34 14Q44.34 13.48 44.62 11.91L44.62 11.91L44.62 11.91Q44.90 10.33 44.90 9.59L44.90 9.59L44.90 9.59Q44.90 8.67 44.34 8.67L44.34 8.67L44.34 8.67Q43.44 8.67 42.48 10.25L42.48 10.25L42.48 10.25Q41.52 11.83 41.52 14.06L41.52 14.06L41.52 14.06Q41.52 14.94 41.61 15.43L41.61 15.43L41.61 15.43Q41.24 15.46 41.17 15.46L41.17 15.46L41.17 15.46Q39.94 15.46 39.94 14.25L39.94 14.25L39.94 14.25Q39.94 13.97 40.24 12.10L40.24 12.10L40.24 12.10Q40.53 10.22 40.53 9.11L40.53 9.11L40.53 9.11Q40.53 7.99 40.29 7.06L40.29 7.06L40.29 7.06Q41.12 7.38 41.45 7.97L41.45 7.97L41.45 7.97Q41.78 8.57 41.78 9.33L41.78 9.33L41.78 9.33Q41.78 10.09 41.61 11.10L41.61 11.10L41.61 11.10Q42.07 9.52 43.06 8.44L43.06 8.44L43.06 8.44Q44.04 7.35 44.90 7.35L44.90 7.35L44.90 7.35Q46.35 7.35 46.35 9.34ZM53.06 7.76L53.06 7.76L53.06 7.76Q53.06 8.34 52.84 8.57L52.84 8.57L52.84 8.57Q52.61 8.79 52.18 8.79L52.18 8.79L51.17 8.79L51.17 8.79Q51.11 9.16 50.88 10.53L50.88 10.53L50.88 10.53Q50.40 13.13 50.40 14.46L50.40 14.46L50.40 14.46Q50.40 15.79 50.60 16.23L50.60 16.23L50.60 16.23Q49.80 15.93 49.46 15.34L49.46 15.34L49.46 15.34Q49.13 14.74 49.13 13.89L49.13 13.89L49.13 13.89Q49.13 13.03 49.23 12.27L49.23 12.27L49.23 12.27Q49.34 11.51 49.53 10.49L49.53 10.49L49.53 10.49Q49.73 9.46 49.81 8.85L49.81 8.85L49.81 8.85Q49.01 8.96 48.24 9.30L48.24 9.30L48.24 9.30Q48.22 9.07 48.22 8.89L48.22 8.89L48.22 8.89Q48.22 8.22 48.66 7.99L48.66 7.99L48.66 7.99Q49.11 7.76 49.95 7.76L49.95 7.76L49.95 7.76Q50.05 6.72 50.05 6.21L50.05 6.21L50.05 6.21Q50.05 5.70 50.04 5.39L50.04 5.39L50.04 5.39Q50.04 5.08 50.04 4.93L50.04 4.93L50.04 4.93Q50.68 5.03 51.03 5.50L51.03 5.50L51.03 5.50Q51.38 5.96 51.38 6.78L51.38 6.78L51.38 6.78Q51.38 7.20 51.31 7.80L51.31 7.80L51.31 7.80Q52.53 7.80 53.03 7.39L53.03 7.39L53.03 7.39Q53.06 7.59 53.06 7.76ZM55.69 11.10L55.69 11.10Q56.15 9.52 57.11 8.44L57.11 8.44L57.11 8.44Q58.07 7.35 58.91 7.35L58.91 7.35L58.91 7.35Q59.75 7.35 60.10 7.86L60.10 7.86L60.10 7.86Q60.45 8.37 60.45 9.25L60.45 9.25L60.45 9.25Q60.45 10.12 60.18 11.70L60.18 11.70L60.18 11.70Q59.91 13.29 59.91 14.01L59.91 14.01L59.91 14.01Q59.91 14.73 60.09 15.06L60.09 15.06L60.09 15.06Q60.27 15.39 60.70 15.62L60.70 15.62L60.70 15.62Q60.52 15.64 60.19 15.64L60.19 15.64L60.19 15.64Q59.29 15.64 58.86 15.27L58.86 15.27L58.86 15.27Q58.44 14.90 58.44 14L58.44 14L58.44 14Q58.44 13.48 58.72 11.91L58.72 11.91L58.72 11.91Q59.00 10.33 59.00 9.59L59.00 9.59L59.00 9.59Q59.00 8.67 58.35 8.67L58.35 8.67L58.35 8.67Q57.97 8.67 57.51 9.07L57.51 9.07L57.51 9.07Q57.05 9.46 56.62 10.14L56.62 10.14L56.62 10.14Q56.20 10.82 55.91 11.87L55.91 11.87L55.91 11.87Q55.62 12.91 55.62 13.92L55.62 13.92L55.62 13.92Q55.62 14.94 55.71 15.43L55.71 15.43L55.71 15.43Q55.37 15.46 55.33 15.46L55.33 15.46L55.33 15.46Q54.67 15.46 54.36 15.18L54.36 15.18L54.36 15.18Q54.04 14.90 54.04 14.30L54.04 14.30L54.04 14.30Q54.04 13.71 54.29 12.01L54.29 12.01L54.29 12.01Q55.03 6.80 55.03 4.10L55.03 4.10L55.03 4.10Q55.03 2.88 54.87 2.46L54.87 2.46L54.87 2.46Q55.68 2.76 56.01 3.33L56.01 3.33L56.01 3.33Q56.34 3.91 56.34 4.91L56.34 4.91L56.34 4.91Q56.34 5.61 56.06 7.85L56.06 7.85L56.06 7.85Q55.79 10.09 55.69 11.10L55.69 11.10ZM66.28 8.08L66.28 8.08L66.28 8.08Q65.44 8.08 64.86 9.04L64.86 9.04L64.86 9.04Q64.27 10.01 64.08 11.31L64.08 11.31L64.47 11.31L64.47 11.31Q65.21 11.31 65.76 11.10L65.76 11.10L65.76 11.10Q66.30 10.89 66.60 10.56L66.60 10.56L66.60 10.56Q67.16 9.91 67.16 9.10L67.16 9.10L67.16 9.10Q67.16 8.64 66.94 8.36L66.94 8.36L66.94 8.36Q66.72 8.08 66.28 8.08ZM68.25 13.75L68.25 13.75Q67.61 14.80 66.84 15.22L66.84 15.22L66.84 15.22Q66.07 15.64 65.05 15.64L65.05 15.64L65.05 15.64Q64.04 15.64 63.28 14.74L63.28 14.74L63.28 14.74Q62.52 13.85 62.52 12.22L62.52 12.22L62.52 12.22Q62.52 10.37 63.52 8.92L63.52 8.92L63.52 8.92Q64.01 8.22 64.80 7.78L64.80 7.78L64.80 7.78Q65.59 7.35 66.54 7.35L66.54 7.35L66.54 7.35Q68.64 7.35 68.64 9.38L68.64 9.38L68.64 9.38Q68.64 10.60 67.70 11.29L67.70 11.29L67.70 11.29Q66.75 11.98 65.51 11.98L65.51 11.98L65.51 11.98Q64.68 11.98 64.02 11.83L64.02 11.83L64.02 11.83Q64.01 11.97 64.01 12.26L64.01 12.26L64.01 12.26Q64.01 14.74 65.48 14.74L65.48 14.74L65.48 14.74Q66.86 14.74 67.73 13.37L67.73 13.37L67.73 13.37Q68.25 13.44 68.25 13.75L68.25 13.75ZM67.97 6.30L67.97 6.30L67.97 6.30Q67.96 6.45 67.82 6.59L67.82 6.59L67.82 6.59Q67.69 6.72 67.52 6.76L67.52 6.76L67.52 6.76Q67.02 6.13 66.23 5.52L66.23 5.52L66.23 5.52Q65.44 4.90 64.62 4.65L64.62 4.65L64.62 4.65Q64.65 3.92 65.30 3.50L65.30 3.50L65.30 3.50Q66.04 3.79 66.83 4.66L66.83 4.66L66.83 4.66Q67.62 5.52 67.97 6.30ZM72.10 10.88L72.10 10.88Q72.60 9.06 73.31 8.20L73.31 8.20L73.31 8.20Q74.02 7.34 74.63 7.34L74.63 7.34L74.63 7.34Q75.24 7.34 75.54 7.79L75.54 7.79L75.54 7.79Q75.85 8.25 75.85 8.95L75.85 8.95L75.85 8.95Q75.85 9.65 75.49 10.16L75.49 10.16L75.49 10.16Q75.12 10.67 74.42 10.67L74.42 10.67L74.42 10.67Q74.20 10.67 74.07 10.64L74.07 10.64L74.07 10.64Q74.55 9.95 74.55 9.24L74.55 9.24L74.55 9.24Q74.55 8.74 74.14 8.74L74.14 8.74L74.14 8.74Q73.82 8.74 73.46 9.11L73.46 9.11L73.46 9.11Q73.09 9.49 72.76 10.16L72.76 10.16L72.76 10.16Q72.42 10.84 72.20 11.91L72.20 11.91L72.20 11.91Q71.97 12.99 71.97 14.24L71.97 14.24L71.97 14.24Q71.97 14.38 72.04 15.43L72.04 15.43L72.04 15.43Q71.68 15.46 71.62 15.46L71.62 15.46L71.62 15.46Q70.39 15.46 70.39 14.25L70.39 14.25L70.39 14.25Q70.39 13.97 70.69 12.10L70.69 12.10L70.69 12.10Q70.98 10.22 70.98 9.11L70.98 9.11L70.98 9.11Q70.98 7.99 70.74 7.06L70.74 7.06L70.74 7.06Q71.57 7.38 71.90 7.97L71.90 7.97L71.90 7.97Q72.23 8.57 72.23 9.36L72.23 9.36L72.23 9.36Q72.23 10.15 72.10 10.88L72.10 10.88ZM80.35 8.08L80.35 8.08L80.35 8.08Q79.51 8.08 78.92 9.04L78.92 9.04L78.92 9.04Q78.34 10.01 78.15 11.31L78.15 11.31L78.54 11.31L78.54 11.31Q79.28 11.31 79.83 11.10L79.83 11.10L79.83 11.10Q80.37 10.89 80.67 10.56L80.67 10.56L80.67 10.56Q81.23 9.91 81.23 9.10L81.23 9.10L81.23 9.10Q81.23 8.64 81.01 8.36L81.01 8.36L81.01 8.36Q80.79 8.08 80.35 8.08ZM82.32 13.75L82.32 13.75Q81.68 14.80 80.91 15.22L80.91 15.22L80.91 15.22Q80.14 15.64 79.12 15.64L79.12 15.64L79.12 15.64Q78.11 15.64 77.35 14.74L77.35 14.74L77.35 14.74Q76.59 13.85 76.59 12.22L76.59 12.22L76.59 12.22Q76.59 10.37 77.59 8.92L77.59 8.92L77.59 8.92Q78.08 8.22 78.87 7.78L78.87 7.78L78.87 7.78Q79.66 7.35 80.61 7.35L80.61 7.35L80.61 7.35Q82.71 7.35 82.71 9.38L82.71 9.38L82.71 9.38Q82.71 10.60 81.77 11.29L81.77 11.29L81.77 11.29Q80.82 11.98 79.58 11.98L79.58 11.98L79.58 11.98Q78.75 11.98 78.09 11.83L78.09 11.83L78.09 11.83Q78.08 11.97 78.08 12.26L78.08 12.26L78.08 12.26Q78.08 14.74 79.55 14.74L79.55 14.74L79.55 14.74Q80.93 14.74 81.80 13.37L81.80 13.37L81.80 13.37Q82.32 13.44 82.32 13.75L82.32 13.75Z"
       id="path2" />
  </g>
  <defs
     data-v-423bf9ae=""
     id="defs10">
    <linearGradient
       data-v-423bf9ae=""
       gradientTransform="rotate(25)"
       id="1c9e5e94-8daa-4b90-953d-5ec5a7b7c461"
       x1="0%"
       y1="0%"
       x2="100%"
       y2="0%">
      <stop
         data-v-423bf9ae=""
         offset="0%"
         style="stop-color: rgb(180, 55, 61); stop-opacity: 1;"
         id="stop5" />
      <stop
         data-v-423bf9ae=""
         offset="100%"
         style="stop-color: rgb(178, 58, 203); stop-opacity: 1;"
         id="stop7" />
    </linearGradient>
  </defs>
  <g
     data-v-423bf9ae=""
     id="97221fff-9f5f-45e5-b2fa-fe4d6ef25df3"
     transform="matrix(1.2101654687240968,0,0,1.2101654687240968,-4.368992009843154,-14.702727655207887)"
     stroke="none"
     fill="url(#1c9e5e94-8daa-4b90-953d-5ec5a7b7c461)">
    <defs
       id="defs14">
      <style
         id="style12">.cls-1{fill:#1d1d1b}</style>
    </defs>
    <path
       class="cls-1"
       d="M44 46.07V46a5.74 5.74 0 0 0-3.52-2.72h-.14a11.6 11.6 0 0 0-2.5-.47 15.62 15.62 0 0 1-6.43-2.38.75.75 0 0 0-.84 1.24 17.29 17.29 0 0 0 2 1.11c0 .1-.09.2-.12.31a6.09 6.09 0 0 0 4.15 7.51 6.46 6.46 0 0 0 1.78.25 5.9 5.9 0 0 0 4.69-2.28 10.33 10.33 0 0 1-.18 3 .75.75 0 0 0 .47 1 .76.76 0 0 0 .24 0 .75.75 0 0 0 .71-.51 11.57 11.57 0 0 0 .23-4.1 4.94 4.94 0 0 0-.54-1.89zm-4.47-1.49a1.28 1.28 0 0 1 0 .52 1.3 1.3 0 1 1-2.53-.71 1.27 1.27 0 0 1 .09-.17l.6.07a10.89 10.89 0 0 1 1.86.3zm.94 4.25a4.67 4.67 0 0 1-3.48.32 4.59 4.59 0 0 1-3.14-5.67v-.12a15.83 15.83 0 0 0 1.7.55v.06A2.8 2.8 0 1 0 41 45.14a3.86 3.86 0 0 1 1.48 1.32 4.27 4.27 0 0 1-1.99 2.37zM67.57 43.07c0-.11-.08-.2-.12-.31a17.29 17.29 0 0 0 2-1.11.75.75 0 0 0-.84-1.24 15.62 15.62 0 0 1-6.43 2.38 11.59 11.59 0 0 0-2.52.47h-.12A5.74 5.74 0 0 0 56 46v.05a4.94 4.94 0 0 0-.54 1.95 11.57 11.57 0 0 0 .23 4.1.75.75 0 0 0 .71.51.75.75 0 0 0 .72-1 10.27 10.27 0 0 1-.19-3 5.9 5.9 0 0 0 4.69 2.28 6.46 6.46 0 0 0 1.78-.25 6.09 6.09 0 0 0 4.17-7.57zm-5.3 1.22l.6-.07a1.26 1.26 0 0 1 .09.17 1.3 1.3 0 0 1-.89 1.6 1.27 1.27 0 0 1-1.63-1.41 10.89 10.89 0 0 1 1.84-.29zm.73 4.86a4.67 4.67 0 0 1-3.48-.32 4.27 4.27 0 0 1-2-2.38A3.86 3.86 0 0 1 59 45.14a2.84 2.84 0 0 0 .07.37 2.8 2.8 0 0 0 2.69 2A2.8 2.8 0 0 0 64.41 44v-.06a15.83 15.83 0 0 0 1.7-.55v.12A4.59 4.59 0 0 1 63 49.15z"
       id="path16" />
    <path
       class="cls-1"
       d="M46.33 44.89c-.16-2.25-2-3.68-5.15-3.92a11.57 11.57 0 0 1-4.68-1.69.75.75 0 0 0-.83 1.25 12.92 12.92 0 0 0 5.4 1.93c1.35.1 3.63.57 3.77 2.53a.75.75 0 0 0 .75.7h.05a.75.75 0 0 0 .69-.8zM59.31 42.46a12.92 12.92 0 0 0 5.4-1.93.75.75 0 0 0-.83-1.25A11.58 11.58 0 0 1 59.19 41c-3.11.24-5 1.67-5.15 3.92a.75.75 0 0 0 .7.8h.05a.75.75 0 0 0 .75-.7c.14-2.02 2.46-2.45 3.77-2.56zM34.64 37.25a.75.75 0 1 0 1.16-.95l-3.19-3.92a.75.75 0 1 0-1.16.95zM38 35.08a.75.75 0 0 0 .7.48.75.75 0 0 0 .7-1l-1.41-3.68a.75.75 0 1 0-1.4.54zM42 35.19a.75.75 0 0 0 .75-.69l.25-3.18a.75.75 0 0 0-.69-.81.74.74 0 0 0-.81.69l-.25 3.19a.75.75 0 0 0 .75.8z"
       id="path18" />
    <path
       class="cls-1"
       d="M95.31 61c-3.9-1.24-13.08-1.13-20.54-.79 5-6.31 5-12.41 4.11-15.28-.68-2.15-1.73-7.57-.39-9.68a1.56 1.56 0 0 1 1.18-.77c1.76-.23 2.08-2.06 2.33-3.52a8.38 8.38 0 0 1 .35-1.54 4.25 4.25 0 0 1 1.22-1.37 10.59 10.59 0 0 0 3.18-4.23c1.59-3.91-.54-5.84-.63-5.92a.73.73 0 0 0-.28-.13h-.14a6.16 6.16 0 0 0-4.81.73c-.68.33-1.52.73-2.76 1.25a6.88 6.88 0 0 1-8-1.32c-4.5-4.32-7.67-5.57-20.08-5.57s-15.54 1.26-20 5.57a6.88 6.88 0 0 1-8 1.32 51.69 51.69 0 0 1-2.76-1.25 6.16 6.16 0 0 0-4.81-.73h-.14a.73.73 0 0 0-.28.13c-.09.08-2.22 2-.63 5.92a10.59 10.59 0 0 0 3.18 4.23 4.26 4.26 0 0 1 1.22 1.37A8.4 8.4 0 0 1 18 31c.25 1.47.56 3.29 2.33 3.52a1.56 1.56 0 0 1 1.18.77c1.34 2.11.29 7.53-.39 9.68-.91 2.87-.87 9 4.11 15.28-7.46-.34-16.64-.45-20.54.79a.75.75 0 0 0 .46 1.43c4.09-1.3 15-1 21.18-.66h.25l.65.69c-7.68.11-12.89.64-15.5 1.58a.75.75 0 1 0 .51 1.41c2.58-.93 8.3-1.45 16.56-1.51.35.3.71.59 1.07.88-6.47.36-17 1.21-21 3a.75.75 0 0 0 .6 1.37c4.17-1.83 16.18-2.64 22.22-2.95l1 .72.1.07c-6.29.61-10.59 1.4-12.79 2.36a.75.75 0 0 0 .6 1.37c2.07-.91 6.45-1.69 12.72-2.28A19.94 19.94 0 0 0 34 74c1.63 4.32 3.86 5.38 6.46 5.6a5.67 5.67 0 0 0 1.52 1.81 15.18 15.18 0 0 0-3.39 4.47.75.75 0 0 0 1.4.54c.27-.7 1.08-2 3.29-4.19a10.86 10.86 0 0 0 2 .78 11.32 11.32 0 0 0-.92 3.43.75.75 0 0 0 .71.79.75.75 0 0 0 .75-.71 10.34 10.34 0 0 1 .91-3.17 19.89 19.89 0 0 0 6.54 0 10.5 10.5 0 0 1 .91 3.17.75.75 0 0 0 .75.71.75.75 0 0 0 .71-.79 11.32 11.32 0 0 0-.89-3.44 10.86 10.86 0 0 0 2-.78c2.21 2.19 3 3.49 3.29 4.19a.75.75 0 0 0 1.4-.54 15.18 15.18 0 0 0-3.39-4.47 5.67 5.67 0 0 0 1.52-1.81c2.6-.22 4.83-1.27 6.45-5.59a19.92 19.92 0 0 0 .65-5.45c6.27.59 10.66 1.37 12.72 2.28a.75.75 0 1 0 .6-1.37c-2.22-1-6.6-1.77-13-2.38l.8-.56.31-.22c6 .3 18.2 1.11 22.42 3a.75.75 0 0 0 .6-1.37c-4.06-1.78-14.61-2.62-21.07-3q.57-.43 1.11-.88c8.28.05 14 .57 16.59 1.51a.75.75 0 0 0 .51-1.41c-2.6-.94-7.81-1.47-15.5-1.58l.65-.69h.25c6.15-.31 17.09-.64 21.18.66a.75.75 0 0 0 .47-1.54zm-42 18.91a.75.75 0 1 0-1.3.75c.16.27.39.7.64 1.2a18.15 18.15 0 0 1-5.22 0c.35-.71.63-1.19.64-1.2a.75.75 0 1 0-1.3-.75c0 .06-.42.73-.87 1.66a7 7 0 0 1-3.58-2h2.43A6 6 0 0 0 50 76.43a6 6 0 0 0 5.29 3.13h2.43a7 7 0 0 1-3.58 2c-.45-.9-.83-1.56-.87-1.63zm17.1-17.26l-.08.06c-.84.7-1.77 1.38-2.68 2h-.78c.13-1.71.45-3.25 1.07-3.71a.75.75 0 0 0-.94-1.2c-1 .83-1.44 2.64-1.63 4.83h-.61a.73.73 0 0 0-.77.73.75.75 0 0 0 .73.77h.56v.74h-.18a.76.76 0 0 0-.81.68.75.75 0 0 0 .68.81h.21a20 20 0 0 1-.56 5.05c-1.41 3.75-3.1 4.54-5.55 4.66H55.29a4.54 4.54 0 0 1-4.53-4.46 5.51 5.51 0 0 1 1.16-.84c1-.64 2.47-1.52 1.93-2.79-.19-.44-.06-.65 1.66-1.82l.63-.43a2.48 2.48 0 0 0 1.3-2 2.08 2.08 0 0 0-.95-1.6.74.74 0 0 0-1 .22.76.76 0 0 0 .21 1c.08.06.26.23.27.37s-.17.41-.66.75l-.62.43c-1.63 1.1-2.91 2-2.2 3.57-.08.25-.89.74-1.33 1a10.22 10.22 0 0 0-1.13.77 10.22 10.22 0 0 0-1.13-.77 7.46 7.46 0 0 1-1.33-.93c.71-1.67-.58-2.54-2.2-3.65l-.62-.43c-.48-.34-.66-.61-.66-.75s.18-.31.26-.37a.75.75 0 0 0-.81-1.26 2.08 2.08 0 0 0-.95 1.6 2.48 2.48 0 0 0 1.3 2l.63.43c1.73 1.17 1.85 1.38 1.66 1.82-.54 1.28.89 2.15 1.93 2.79a10.47 10.47 0 0 1 1.16.77 4.54 4.54 0 0 1-4.54 4.52h-1.56c-3.72.09-6 .14-7.78-4.66a20.07 20.07 0 0 1-.56-5.05h.21a.75.75 0 1 0-.13-1.5h-.14v-.74h.56a.75.75 0 0 0 0-1.5h-.61c-.19-2.19-.58-4-1.63-4.83A.75.75 0 1 0 32.06 61c.62.49.91 2 1.06 3.71h-.95c-.85-.64-1.7-1.31-2.48-2a.73.73 0 0 0-.15-.14c-.26-.23-.52-.46-.76-.69l2.33.15h.06a.75.75 0 0 0 .06-1.5s-1.57-.12-4-.25c-5.44-6.19-5.58-12.2-4.72-14.92 0-.08 2.33-7.62.23-10.93a3.07 3.07 0 0 0-2.2-1.43c-.62-.08-.82-1-1-2.29a9.51 9.51 0 0 0-.44-1.84 5.37 5.37 0 0 0-1.63-1.95 9 9 0 0 1-2.78-3.67c-1-2.36-.23-3.66.1-4.08a3.19 3.19 0 0 1 2.07.54c.07.06 7.52 5.52 10.79 5.52H28c-3 2.15-4.76 4.9-4.76 7.59a.75.75 0 0 0 1.5 0c0-2.81 2.6-5.89 6.63-7.86a13.71 13.71 0 0 0 4.48-1.49.75.75 0 1 0-.73-1.31 15.48 15.48 0 0 1-7.56 1.58c-1.25 0-3.64-1.21-5.86-2.55a8.3 8.3 0 0 0 9.3-1.73c4-3.82 6.49-5.15 19-5.15s15 1.34 19 5.15a8.18 8.18 0 0 0 5.77 2.45 9.77 9.77 0 0 0 3.44-.68c-2.21 1.33-4.6 2.53-5.84 2.53a15.48 15.48 0 0 1-7.56-1.58.75.75 0 0 0-.73 1.31A13.72 13.72 0 0 0 68.59 25c4 2 6.63 5 6.63 7.86a.75.75 0 0 0 1.5 0c0-2.7-1.77-5.45-4.76-7.59h.44c3.27 0 10.72-5.46 10.79-5.52a3.19 3.19 0 0 1 2.06-.54c.33.43 1.05 1.73.1 4.08a9 9 0 0 1-2.78 3.67 5.37 5.37 0 0 0-1.63 1.95 9.49 9.49 0 0 0-.44 1.84c-.23 1.33-.42 2.21-1 2.29a3.07 3.07 0 0 0-2.25 1.45c-2.11 3.31.2 10.86.23 10.93.87 2.73.72 8.74-4.72 14.92-2.39.13-4 .25-4 .25a.75.75 0 0 0 .06 1.5h.06l2.33-.15c-.21.23-.52.47-.8.71z"
       id="path20" />
    <path
       class="cls-1"
       d="M64.77 37.53a.75.75 0 0 0 .58-.28l3.19-3.92a.75.75 0 1 0-1.16-.95l-3.19 3.92a.75.75 0 0 0 .58 1.22zM61.07 35.51a.74.74 0 0 0 .27 0 .75.75 0 0 0 .7-.48l1.41-3.68a.75.75 0 1 0-1.4-.54l-1.41 3.68a.75.75 0 0 0 .43 1.02zM58 35.2a.75.75 0 0 0 .69-.81l-.25-3.19a.75.75 0 0 0-1.5.12l.25 3.19a.75.75 0 0 0 .81.69z"
       id="path22" />
    <circle
       class="cls-1"
       cx="38.13"
       cy="69.84"
       r="1.05"
       id="circle24" />
    <circle
       class="cls-1"
       cx="38.48"
       cy="73.41"
       r="1.05"
       id="circle26" />
    <circle
       class="cls-1"
       cx="41.22"
       cy="75.76"
       r="1.05"
       id="circle28" />
    <circle
       class="cls-1"
       cx="42.14"
       cy="72.11"
       r="1.05"
       id="circle30" />
    <circle
       class="cls-1"
       cx="45.06"
       cy="73.95"
       r="1.05"
       id="circle32" />
    <circle
       class="cls-1"
       cx="61.87"
       cy="69.84"
       r="1.05"
       id="circle34" />
    <circle
       class="cls-1"
       cx="61.52"
       cy="73.41"
       r="1.05"
       id="circle36" />
    <circle
       class="cls-1"
       cx="58.78"
       cy="75.76"
       r="1.05"
       id="circle38" />
    <circle
       class="cls-1"
       cx="57.86"
       cy="72.11"
       r="1.05"
       id="circle40" />
    <circle
       class="cls-1"
       cx="54.94"
       cy="73.95"
       r="1.05"
       id="circle42" />
    <path
       class="cls-1"
       d="M53.56 52.5a.75.75 0 0 0-.81.69A9.21 9.21 0 0 1 50 58.58a9.16 9.16 0 0 1-2.73-5.4.75.75 0 0 0-1.5.12 11 11 0 0 0 3.73 6.86.75.75 0 0 0 .47.17.75.75 0 0 0 .47-.17 11 11 0 0 0 3.73-6.86.75.75 0 0 0-.61-.8zM40.37 55.2a.75.75 0 0 0-1 .27c-.2.35-.46.72-.73 1.11-1.34 1.94-3.36 4.88-.51 8a.75.75 0 0 0 1.1-1c-1.89-2.05-.93-3.82.64-6.1.29-.43.57-.83.79-1.21a.75.75 0 0 0-.29-1.07zM60.69 55.47a.75.75 0 1 0-1.3.75c.22.38.5.78.79 1.21 1.57 2.28 2.53 4.05.64 6.1a.75.75 0 1 0 1.1 1c2.85-3.09.83-6-.51-8-.25-.34-.51-.71-.72-1.06zM41.89 65a.75.75 0 0 0-1.43-.46 4.13 4.13 0 0 0 1.91 4.82.75.75 0 0 0 .75-1.3A2.62 2.62 0 0 1 41.89 65zM57.62 69.33a4.13 4.13 0 0 0 1.91-4.82.75.75 0 0 0-1.43.46A2.62 2.62 0 0 1 56.87 68a.75.75 0 0 0 .75 1.3zM52.88 65.15a3.83 3.83 0 0 1-5.77 0 .75.75 0 0 0-1.16 1 5.32 5.32 0 0 0 8.08 0 .75.75 0 0 0-1.16-1zM30.51 50.52a.75.75 0 1 0-.72 1.31c2.63 1.45 3.77 3.59 3.77 4.36a.75.75 0 0 0 1.5 0c0-1.55-1.7-4.1-4.55-5.67zM70.59 50.82a.75.75 0 0 0-1-.3C66.72 52.09 65 54.64 65 56.2a.75.75 0 0 0 1.5 0c0-.77 1.14-2.92 3.77-4.36a.75.75 0 0 0 .32-1.02z"
       id="path44" />
  </g>
  <!---->
  <g
     data-v-423bf9ae=""
     id="54c8ca41-f910-4170-8f82-6d26474b6f31"
     fill="#000000"
     transform="matrix(1.1869748,0,0,1.1869748,131.0787,70.567555)">
    <path
       d="M 7.74,13.02 6.58,10.12 H 2.16 l -1.15,2.9 H 0.27 L 3.96,3.78 h 0.83 l 3.69,9.24 z M 2.42,9.48 H 6.33 L 4.72,5.45 4.38,4.47 H 4.37 L 4.03,5.42 Z M 20.52,8.5 h 3.8 v 4.52 h -0.56 l -0.03,-1.61 v 0 q -0.38,0.84 -1.18,1.3 v 0 0 q -0.81,0.45 -2,0.45 v 0 0 q -1.26,0 -2.2,-0.58 v 0 0 Q 17.4,12 16.89,10.92 v 0 0 Q 16.38,9.84 16.38,8.4 v 0 0 q 0,-1.44 0.53,-2.52 v 0 0 Q 17.43,4.8 18.38,4.22 v 0 0 q 0.95,-0.58 2.21,-0.58 v 0 0 q 1.42,0 2.31,0.56 v 0 0 q 0.9,0.56 1.35,1.71 v 0 L 23.6,6.24 v 0 Q 23.28,5.28 22.52,4.78 v 0 0 q -0.76,-0.5 -1.93,-0.5 v 0 0 q -1.03,0 -1.82,0.5 v 0 0 q -0.78,0.5 -1.21,1.43 v 0 0 Q 17.12,7.14 17.12,8.4 v 0 0 q 0,1.92 0.92,3.02 v 0 0 q 0.92,1.1 2.54,1.1 v 0 0 q 1.01,0 1.71,-0.4 v 0 0 q 0.7,-0.4 1.03,-1.05 v 0 0 q 0.34,-0.65 0.34,-1.4 v 0 -0.51 h -3.14 z m 13.98,3.88 h 5.83 v 0.64 H 33.8 V 3.78 h 6.31 V 4.42 H 34.5 v 3.57 h 4.43 V 8.65 H 34.5 Z m 21.96,-8.6 v 9.24 H 55.59 L 50.69,5.77 50.01,4.54 h -0.02 l 0.05,1.16 v 7.32 H 49.36 V 3.78 h 0.89 l 4.88,7.24 0.7,1.24 L 55.8,11.1 V 3.78 Z m 17.22,6.9 v 0 q -0.39,1.18 -1.36,1.83 v 0 0 q -0.98,0.65 -2.33,0.65 v 0 0 q -1.26,0 -2.22,-0.58 v 0 0 Q 66.82,12 66.3,10.92 v 0 0 Q 65.79,9.84 65.79,8.4 v 0 0 q 0,-1.44 0.51,-2.52 v 0 0 Q 66.82,4.8 67.77,4.22 v 0 0 q 0.96,-0.58 2.2,-0.58 v 0 0 q 2.77,0 3.59,2.28 v 0 l -0.69,0.32 v 0 Q 72.55,5.26 71.84,4.77 v 0 0 Q 71.13,4.28 70.01,4.28 v 0 0 q -1.03,0 -1.82,0.5 v 0 0 q -0.79,0.5 -1.23,1.43 v 0 0 Q 66.53,7.14 66.53,8.4 v 0 0 q 0,1.26 0.43,2.19 v 0 0 q 0.42,0.93 1.2,1.43 v 0 0 q 0.78,0.5 1.83,0.5 v 0 0 q 1.12,0 1.9,-0.55 v 0 0 q 0.78,-0.55 1.09,-1.55 v 0 z m 9.76,1.7 h 5.84 v 0.64 H 82.74 V 3.78 h 6.31 v 0.64 h -5.61 v 3.57 h 4.44 v 0.66 h -4.44 z m 29.16,-8.6 v 0 q 2.21,0 3.41,1.17 v 0 0 q 1.2,1.17 1.2,3.38 v 0 0 q 0,2.27 -1.2,3.48 v 0 0 q -1.2,1.21 -3.41,1.21 v 0 h -2.91 V 3.78 Z m 0.06,8.6 v 0 q 1.85,0 2.83,-1.05 v 0 0 q 0.99,-1.04 0.99,-3 v 0 0 q 0,-1.88 -0.99,-2.89 v 0 0 q -0.98,-1.02 -2.83,-1.02 v 0 h -2.27 v 7.96 z m 14.59,0 h 5.83 v 0.64 h -6.53 V 3.78 h 6.31 v 0.64 h -5.61 v 3.57 h 4.43 v 0.66 h -4.43 z m 30.82,-5.84 -1.86,6.48 h -0.87 l -2.88,-9.24 h 0.76 l 2.56,8.67 2.42,-8.67 h 0.81 l 2.42,8.68 2.59,-8.68 h 0.72 l -2.89,9.24 h -0.86 l -1.87,-6.48 -0.51,-2 h -0.02 z m 16.24,5.84 h 5.84 v 0.64 h -6.54 V 3.78 h 6.32 v 0.64 h -5.62 v 3.57 h 4.44 v 0.66 h -4.44 z m 14.87,0.64 V 3.78 h 3.26 v 0 q 1.52,0 2.27,0.63 v 0 0 q 0.74,0.63 0.74,1.82 v 0 0 q 0,0.81 -0.44,1.37 v 0 0 q -0.44,0.56 -1.25,0.73 v 0 0.01 0 q 0.9,0.14 1.42,0.73 v 0 0 q 0.53,0.59 0.53,1.46 v 0 0 q 0,1.19 -0.85,1.84 v 0 0 q -0.85,0.65 -2.42,0.65 v 0 z m 0.7,-4.98 h 2.58 v 0 q 2.25,0 2.25,-1.81 v 0 0 q 0,-1.81 -2.25,-1.81 v 0 h -2.58 z m 0,4.34 h 2.7 v 0 q 1.18,0 1.78,-0.48 v 0 0 q 0.6,-0.48 0.6,-1.37 v 0 0 q 0,-0.91 -0.6,-1.38 v 0 0 q -0.6,-0.47 -1.78,-0.47 v 0 h -2.7 z m 29.44,-8.6 v 0 q 2.22,0 3.41,1.17 v 0 0 q 1.2,1.17 1.2,3.38 v 0 0 q 0,2.27 -1.2,3.48 v 0 0 q -1.19,1.21 -3.41,1.21 v 0 h -2.91 V 3.78 Z m 0.06,8.6 v 0 q 1.85,0 2.84,-1.05 v 0 0 q 0.98,-1.04 0.98,-3 v 0 0 q 0,-1.88 -0.98,-2.89 v 0 0 q -0.99,-1.02 -2.84,-1.02 v 0 h -2.27 v 7.96 z m 14.59,0 h 5.84 v 0.64 h -6.54 V 3.78 h 6.31 v 0.64 h -5.61 v 3.57 h 4.44 v 0.66 h -4.44 z m 17.72,-8.74 v 0 q 2.61,0 3.49,2.04 v 0 l -0.6,0.49 v 0 q -0.35,-0.99 -1.05,-1.44 v 0 0 q -0.69,-0.45 -1.82,-0.45 v 0 0 q -0.82,0 -1.42,0.26 v 0 0 q -0.6,0.25 -0.91,0.68 v 0 0 q -0.32,0.44 -0.32,0.98 v 0 0 q 0,0.53 0.27,0.88 v 0 0 q 0.26,0.35 0.9,0.6 v 0 0 q 0.64,0.24 1.76,0.44 v 0 0 q 1.8,0.31 2.56,0.9 v 0 0 q 0.75,0.58 0.75,1.62 v 0 0 q 0,0.74 -0.43,1.32 v 0 0 q -0.43,0.57 -1.22,0.88 v 0 0 q -0.8,0.32 -1.82,0.32 v 0 0 q -1.45,0 -2.45,-0.58 v 0 0 Q 248.37,12 248.01,10.95 v 0 l 0.62,-0.48 v 0 q 0.28,1 1.12,1.52 v 0 0 q 0.85,0.53 2.1,0.53 v 0 0 q 1.2,0 1.96,-0.49 v 0 0 q 0.77,-0.49 0.77,-1.35 v 0 0 q 0,-0.74 -0.63,-1.17 v 0 0 q -0.62,-0.44 -2.16,-0.7 v 0 0 q -1.3,-0.23 -2.06,-0.55 v 0 0 q -0.75,-0.32 -1.08,-0.8 v 0 0 q -0.33,-0.47 -0.33,-1.19 v 0 0 q 0,-0.71 0.41,-1.31 v 0 0 Q 249.14,4.35 249.91,4 v 0 0 q 0.76,-0.36 1.78,-0.36 z m 13.51,0.14 v 9.24 h -0.7 V 3.78 Z m 13.47,4.72 h 3.79 v 4.52 h -0.56 l -0.02,-1.61 v 0 q -0.38,0.84 -1.19,1.3 v 0 0 q -0.8,0.45 -1.99,0.45 v 0 0 q -1.26,0 -2.21,-0.58 v 0 0 Q 275.55,12 275.04,10.92 v 0 0 Q 274.53,9.84 274.53,8.4 v 0 0 q 0,-1.44 0.52,-2.52 v 0 0 q 0.53,-1.08 1.48,-1.66 v 0 0 q 0.95,-0.58 2.21,-0.58 v 0 0 q 1.41,0 2.31,0.56 v 0 0 q 0.9,0.56 1.34,1.71 v 0 l -0.64,0.33 v 0 q -0.32,-0.96 -1.08,-1.46 v 0 0 q -0.77,-0.5 -1.93,-0.5 v 0 0 q -1.04,0 -1.82,0.5 v 0 0 q -0.78,0.5 -1.22,1.43 v 0 0 q -0.43,0.93 -0.43,2.19 v 0 0 q 0,1.92 0.92,3.02 v 0 0 q 0.91,1.1 2.54,1.1 v 0 0 q 1,0 1.7,-0.4 v 0 0 q 0.7,-0.4 1.04,-1.05 v 0 0 q 0.34,-0.65 0.34,-1.4 v 0 -0.51 h -3.14 z m 20.37,-4.72 v 9.24 h -0.87 l -4.9,-7.25 -0.68,-1.23 h -0.02 l 0.04,1.16 v 7.32 h -0.67 V 3.78 h 0.88 l 4.89,7.24 0.7,1.24 -0.03,-1.16 V 3.78 Z"
       id="path47" />
  </g>
</svg>
